<svg width="24" height="24" viewBox="0 0 24 24" fill="currentColor" xmlns="http://www.w3.org/2000/svg">
<path d="M9.26943 10.3996C9.51832 10.6277 9.51832 10.9969 9.26943 11.2244C9.02055 11.4525 8.61762 11.4525 8.36937 11.2244C8.12048 10.9963 8.12048 10.6271 8.36937 10.3996C8.61825 10.1715 9.02118 10.1715 9.26943 10.3996ZM18.0868 13.9491L17.7271 14.2787C17.7099 14.9979 17.4057 15.7119 16.8137 16.2613L14.7978 18.1326C14.1975 18.6897 13.3968 18.9977 12.5425 19H12.5317C11.6819 19 10.8831 18.6967 10.2822 18.146L5.56159 13.8569C5.14784 13.4783 4.94797 12.9574 5.01162 12.426L5.49857 8.39184C5.53104 8.12585 5.75574 7.9141 6.04472 7.87794L10.4298 7.32846C11.0231 7.25612 11.6202 7.44104 12.039 7.82486L16.7971 12.1484C17.0435 12.3741 17.2408 12.6285 17.3898 12.8997C17.9066 12.2195 17.8341 11.2693 17.1721 10.6627L12.3401 6.34324C12.1943 6.20966 11.9932 6.14783 11.7984 6.17291L7.41328 6.72239C7.06382 6.76556 6.74364 6.54215 6.6959 6.22366C6.6488 5.90458 6.89259 5.61059 7.24014 5.56685L11.6259 5.01678C12.2122 4.94037 12.8156 5.12819 13.2351 5.51376L18.0658 9.83321C19.3045 10.9678 19.3115 12.8122 18.0861 13.9497L18.0868 13.9491ZM15.8984 12.9749L11.1402 8.65141C10.9983 8.52133 10.799 8.46125 10.6011 8.484L6.70863 8.97224L6.27642 12.5538C6.25542 12.7305 6.32162 12.9044 6.45911 13.0298L11.1797 17.3189C11.5419 17.6514 12.0212 17.8328 12.5311 17.8328H12.5374C13.0505 17.8316 13.5311 17.6467 13.8907 17.3119L15.9066 15.4406C16.6418 14.7581 16.638 13.6516 15.8977 12.9738L15.8984 12.9749Z" />
</svg>
