<svg width="24" height="24" viewBox="0 0 24 24" fill="currentColor" xmlns="http://www.w3.org/2000/svg">
<g clip-path="url(#clip0_73037_1696)">
<path d="M19.875 5.98199H17.5605C17.4122 5.98203 17.2672 6.02603 17.1439 6.10844C17.0206 6.19086 16.9245 6.30798 16.8677 6.445C16.811 6.58203 16.7961 6.7328 16.825 6.87827C16.854 7.02373 16.9254 7.15736 17.0302 7.26224L17.8447 8.07674L15.1552 10.7655C15.0123 10.9021 14.8223 10.9783 14.6246 10.9783C14.4269 10.9783 14.2369 10.9021 14.094 10.7655L13.9665 10.6372C13.5379 10.2278 12.9681 9.99931 12.3754 9.99931C11.7827 9.99931 11.2128 10.2278 10.7842 10.6372L6.95923 14.4622C6.8183 14.6036 6.73928 14.7951 6.73956 14.9947C6.73985 15.1943 6.8194 15.3856 6.96073 15.5265C7.10205 15.6674 7.29358 15.7464 7.49316 15.7462C7.69275 15.7459 7.88405 15.6663 8.02498 15.525L11.85 11.7C11.9928 11.5633 12.1829 11.4869 12.3806 11.4869C12.5783 11.4869 12.7684 11.5633 12.9112 11.7L13.0387 11.8282C13.4674 12.2373 14.0373 12.4656 14.6299 12.4656C15.2224 12.4656 15.7923 12.2373 16.221 11.8282L18.9105 9.13875L19.725 9.95324C19.8302 10.0564 19.9635 10.1263 20.1082 10.1541C20.253 10.182 20.4027 10.1666 20.5387 10.1099C20.6747 10.0531 20.791 9.95759 20.873 9.83517C20.9551 9.71274 20.9992 9.56886 21 9.42149V7.10699C21 6.80863 20.8815 6.52248 20.6705 6.3115C20.4595 6.10052 20.1733 5.98199 19.875 5.98199Z"/>
<path d="M20.25 19.482H6.75C6.15326 19.482 5.58097 19.2449 5.15901 18.823C4.73705 18.401 4.5 17.8287 4.5 17.232V3.75C4.5 3.55109 4.42098 3.36032 4.28033 3.21967C4.13968 3.07902 3.94891 3 3.75 3C3.55109 3 3.36032 3.07902 3.21967 3.21967C3.07902 3.36032 3 3.55109 3 3.75V17.232C3.00119 18.2262 3.39666 19.1793 4.09966 19.8823C4.80267 20.5853 5.7558 20.9808 6.75 20.982H20.25C20.4489 20.982 20.6397 20.903 20.7803 20.7623C20.921 20.6217 21 20.4309 21 20.232C21 20.0331 20.921 19.8423 20.7803 19.7017C20.6397 19.561 20.4489 19.482 20.25 19.482Z"/>
</g>
<defs>
<clipPath id="clip0_73037_1696">
<rect width="18" height="18"  transform="translate(3 3)"/>
</clipPath>
</defs>
</svg>
