<svg width="24" height="24" viewBox="0 0 24 24" fill="currentColor" xmlns="http://www.w3.org/2000/svg">
<path d="M19.5 3H12.75V4.5H18.4395L3 19.9395L4.0605 21L19.5 5.5605V11.25H21V4.5C21 4.10218 20.842 3.72064 20.5607 3.43934C20.2794 3.15804 19.8978 3 19.5 3V3Z"/>
<path d="M8 11C8.59334 11 9.17336 10.8241 9.66671 10.4944C10.1601 10.1648 10.5446 9.69623 10.7716 9.14805C10.9987 8.59987 11.0581 7.99667 10.9424 7.41473C10.8266 6.83279 10.5409 6.29824 10.1213 5.87868C9.70176 5.45912 9.16721 5.1734 8.58527 5.05765C8.00333 4.94189 7.40013 5.0013 6.85195 5.22836C6.30377 5.45543 5.83524 5.83994 5.50559 6.33329C5.17595 6.82664 5 7.40666 5 8C5 8.79565 5.31607 9.55871 5.87868 10.1213C6.44129 10.6839 7.20435 11 8 11ZM8 6.5C8.29667 6.5 8.58668 6.58797 8.83335 6.7528C9.08003 6.91762 9.27229 7.15189 9.38582 7.42598C9.49935 7.70006 9.52905 8.00166 9.47118 8.29264C9.4133 8.58361 9.27044 8.85088 9.06066 9.06066C8.85088 9.27044 8.58361 9.4133 8.29263 9.47118C8.00166 9.52906 7.70006 9.49935 7.42597 9.38582C7.15189 9.27229 6.91762 9.08003 6.7528 8.83336C6.58797 8.58668 6.5 8.29667 6.5 8C6.5 7.60218 6.65803 7.22064 6.93934 6.93934C7.22064 6.65804 7.60217 6.5 8 6.5Z" />
<path d="M16 13C15.4067 13 14.8266 13.1759 14.3333 13.5056C13.8399 13.8352 13.4554 14.3038 13.2284 14.8519C13.0013 15.4001 12.9419 16.0033 13.0576 16.5853C13.1734 17.1672 13.4591 17.7018 13.8787 18.1213C14.2982 18.5409 14.8328 18.8266 15.4147 18.9424C15.9967 19.0581 16.5999 18.9987 17.1481 18.7716C17.6962 18.5446 18.1648 18.1601 18.4944 17.6667C18.8241 17.1734 19 16.5933 19 16C19 15.2043 18.6839 14.4413 18.1213 13.8787C17.5587 13.3161 16.7957 13 16 13ZM16 17.5C15.7033 17.5 15.4133 17.412 15.1666 17.2472C14.92 17.0824 14.7277 16.8481 14.6142 16.574C14.5007 16.2999 14.4709 15.9983 14.5288 15.7074C14.5867 15.4164 14.7296 15.1491 14.9393 14.9393C15.1491 14.7296 15.4164 14.5867 15.7074 14.5288C15.9983 14.4709 16.2999 14.5006 16.574 14.6142C16.8481 14.7277 17.0824 14.92 17.2472 15.1666C17.412 15.4133 17.5 15.7033 17.5 16C17.5 16.3978 17.342 16.7794 17.0607 17.0607C16.7794 17.342 16.3978 17.5 16 17.5Z" />
</svg>
