<svg width="24" height="24" viewBox="0 0 24 24" fill="currentColor" xmlns="http://www.w3.org/2000/svg">
<g clip-path="url(#clip0_73037_1674)">
<path d="M15.75 3H18C18.7956 3 19.5587 3.31607 20.1213 3.87868C20.6839 4.44129 21 5.20435 21 6V8.25C21 9.04565 20.6839 9.80871 20.1213 10.3713C19.5587 10.9339 18.7956 11.25 18 11.25H15.75C14.9544 11.25 14.1913 10.9339 13.6287 10.3713C13.0661 9.80871 12.75 9.04565 12.75 8.25V6C12.75 5.20435 13.0661 4.44129 13.6287 3.87868C14.1913 3.31607 14.9544 3 15.75 3V3ZM14.25 8.25C14.25 8.64782 14.408 9.02936 14.6893 9.31066C14.9706 9.59196 15.3522 9.75 15.75 9.75H18C18.3978 9.75 18.7794 9.59196 19.0607 9.31066C19.342 9.02936 19.5 8.64782 19.5 8.25V6C19.5 5.60218 19.342 5.22064 19.0607 4.93934C18.7794 4.65804 18.3978 4.5 18 4.5H15.75C15.3522 4.5 14.9706 4.65804 14.6893 4.93934C14.408 5.22064 14.25 5.60218 14.25 6V8.25Z" />
<path d="M6 3H8.25C9.04565 3 9.80871 3.31607 10.3713 3.87868C10.9339 4.44129 11.25 5.20435 11.25 6V8.25C11.25 9.04565 10.9339 9.80871 10.3713 10.3713C9.80871 10.9339 9.04565 11.25 8.25 11.25H6C5.20435 11.25 4.44129 10.9339 3.87868 10.3713C3.31607 9.80871 3 9.04565 3 8.25V6C3 5.20435 3.31607 4.44129 3.87868 3.87868C4.44129 3.31607 5.20435 3 6 3V3ZM4.5 8.25C4.5 8.64782 4.65804 9.02936 4.93934 9.31066C5.22064 9.59196 5.60218 9.75 6 9.75H8.25C8.64782 9.75 9.02936 9.59196 9.31066 9.31066C9.59196 9.02936 9.75 8.64782 9.75 8.25V6C9.75 5.60218 9.59196 5.22064 9.31066 4.93934C9.02936 4.65804 8.64782 4.5 8.25 4.5H6C5.60218 4.5 5.22064 4.65804 4.93934 4.93934C4.65804 5.22064 4.5 5.60218 4.5 6V8.25Z" />
<path d="M15.75 12.75H18C18.7956 12.75 19.5587 13.0661 20.1213 13.6287C20.6839 14.1913 21 14.9544 21 15.75V18C21 18.7956 20.6839 19.5587 20.1213 20.1213C19.5587 20.6839 18.7956 21 18 21H15.75C14.9544 21 14.1913 20.6839 13.6287 20.1213C13.0661 19.5587 12.75 18.7956 12.75 18V15.75C12.75 14.9544 13.0661 14.1913 13.6287 13.6287C14.1913 13.0661 14.9544 12.75 15.75 12.75ZM14.25 18C14.25 18.3978 14.408 18.7794 14.6893 19.0607C14.9706 19.342 15.3522 19.5 15.75 19.5H18C18.3978 19.5 18.7794 19.342 19.0607 19.0607C19.342 18.7794 19.5 18.3978 19.5 18V15.75C19.5 15.3522 19.342 14.9706 19.0607 14.6893C18.7794 14.408 18.3978 14.25 18 14.25H15.75C15.3522 14.25 14.9706 14.408 14.6893 14.6893C14.408 14.9706 14.25 15.3522 14.25 15.75V18Z" />
<path d="M6 12.75H8.25C9.04565 12.75 9.80871 13.0661 10.3713 13.6287C10.9339 14.1913 11.25 14.9544 11.25 15.75V18C11.25 18.7956 10.9339 19.5587 10.3713 20.1213C9.80871 20.6839 9.04565 21 8.25 21H6C5.20435 21 4.44129 20.6839 3.87868 20.1213C3.31607 19.5587 3 18.7956 3 18V15.75C3 14.9544 3.31607 14.1913 3.87868 13.6287C4.44129 13.0661 5.20435 12.75 6 12.75ZM4.5 18C4.5 18.3978 4.65804 18.7794 4.93934 19.0607C5.22064 19.342 5.60218 19.5 6 19.5H8.25C8.64782 19.5 9.02936 19.342 9.31066 19.0607C9.59196 18.7794 9.75 18.3978 9.75 18V15.75C9.75 15.3522 9.59196 14.9706 9.31066 14.6893C9.02936 14.408 8.64782 14.25 8.25 14.25H6C5.60218 14.25 5.22064 14.408 4.93934 14.6893C4.65804 14.9706 4.5 15.3522 4.5 15.75V18Z"/> 
</g>
<defs>
<clipPath id="clip0_73037_1674">
<rect width="18" height="18" transform="matrix(-1 0 0 1 21 3)"/>
</clipPath>
</defs>
</svg>
