<svg width="24" height="24" viewBox="0 0 24 24" fill="currentColor" xmlns="http://www.w3.org/2000/svg">
<path d="M17.8605 5.34151L16.5725 4.09801C16.2122 3.74875 15.7836 3.47187 15.3115 3.2834C14.8394 3.09493 14.3333 2.99861 13.8223 3.00002H8.88889C7.85787 3.00121 6.86943 3.39668 6.14039 4.09968C5.41135 4.80268 5.00123 5.75582 5 6.75001V17.25C5.00123 18.2442 5.41135 19.1973 6.14039 19.9003C6.86943 20.6033 7.85787 20.9988 8.88889 21H15.1111C16.1421 20.9988 17.1306 20.6033 17.8596 19.9003C18.5886 19.1973 18.9988 18.2442 19 17.25V7.99276C19.0012 7.50015 18.9012 7.01219 18.7056 6.55711C18.51 6.10203 18.2228 5.68886 17.8605 5.34151ZM16.7608 6.40201C16.8711 6.508 16.9699 6.62461 17.0555 6.75001H15.1111V4.87501C15.2409 4.9585 15.3621 5.05395 15.4728 5.16001L16.7608 6.40201ZM17.4444 17.25C17.4444 17.8467 17.1986 18.419 16.761 18.841C16.3234 19.2629 15.7299 19.5 15.1111 19.5H8.88889C8.27005 19.5 7.67656 19.2629 7.23897 18.841C6.80139 18.419 6.55555 17.8467 6.55555 17.25V6.75001C6.55555 6.15328 6.80139 5.58098 7.23897 5.15902C7.67656 4.73707 8.27005 4.50001 8.88889 4.50001H13.5555V6.75001C13.5555 7.14784 13.7194 7.52937 14.0112 7.81067C14.3029 8.09198 14.6985 8.25001 15.1111 8.25001H17.4444V17.25ZM15.1111 9.75001C15.3174 9.75001 15.5152 9.82903 15.6611 9.96968C15.8069 10.1103 15.8889 10.3011 15.8889 10.5C15.8889 10.6989 15.8069 10.8897 15.6611 11.0303C15.5152 11.171 15.3174 11.25 15.1111 11.25H8.88889C8.68261 11.25 8.48478 11.171 8.33891 11.0303C8.19305 10.8897 8.11111 10.6989 8.11111 10.5C8.11111 10.3011 8.19305 10.1103 8.33891 9.96968C8.48478 9.82903 8.68261 9.75001 8.88889 9.75001H15.1111ZM15.8889 13.5C15.8889 13.6989 15.8069 13.8897 15.6611 14.0303C15.5152 14.171 15.3174 14.25 15.1111 14.25H8.88889C8.68261 14.25 8.48478 14.171 8.33891 14.0303C8.19305 13.8897 8.11111 13.6989 8.11111 13.5C8.11111 13.3011 8.19305 13.1103 8.33891 12.9697C8.48478 12.829 8.68261 12.75 8.88889 12.75H15.1111C15.3174 12.75 15.5152 12.829 15.6611 12.9697C15.8069 13.1103 15.8889 13.3011 15.8889 13.5ZM15.7395 16.0598C15.8605 16.2201 15.9106 16.4202 15.8789 16.6161C15.8473 16.812 15.7365 16.9879 15.5708 17.1053C14.7827 17.6467 13.8494 17.9574 12.8828 18C12.318 17.9974 11.7704 17.8126 11.3272 17.475C11.0721 17.3063 10.9749 17.25 10.7828 17.25C10.2628 17.3276 9.77214 17.5326 9.35788 17.8455C9.19358 17.9584 8.99018 18.0054 8.79065 17.9764C8.59111 17.9475 8.41106 17.8449 8.28851 17.6903C8.16596 17.5357 8.1105 17.3413 8.13386 17.148C8.15721 16.9547 8.25754 16.7778 8.41366 16.6545C9.09903 16.1415 9.92199 15.8277 10.7859 15.75C11.304 15.758 11.8049 15.9307 12.2108 16.2413C12.3958 16.4017 12.634 16.4935 12.8828 16.5C13.5187 16.4541 14.1303 16.2445 14.6538 15.8933C14.8207 15.7766 15.0288 15.7286 15.2324 15.7598C15.436 15.791 15.6184 15.8989 15.7395 16.0598Z"
/>
</svg>
