<svg width="24" height="25" viewBox="0 0 24 25" fill="currentColor" xmlns="http://www.w3.org/2000/svg">
<g clip-path="url(#clip0_73037_1701)">
<path d="M21.1217 13.5936L20.2896 12.9086C19.7197 12.4395 19.7207 11.5674 20.2897 11.0992L21.1217 10.4143C21.7137 9.9268 21.8652 9.09094 21.4817 8.42668L19.8388 5.58113C19.4553 4.91691 18.6556 4.6302 17.9375 4.89918L16.9283 5.27727C16.2371 5.53617 15.4824 5.09949 15.3613 4.37254L15.1841 3.30949C15.058 2.55301 14.4099 2.00391 13.6429 2.00391H10.3572C9.59017 2.00391 8.94197 2.55301 8.81592 3.30953L8.63873 4.37254C8.51736 5.10078 7.76166 5.53574 7.0717 5.2773L6.06252 4.89918C5.34443 4.6302 4.54474 4.91695 4.16119 5.58113L2.51834 8.42664C2.13486 9.09082 2.28627 9.92672 2.87841 10.4142L3.71041 11.0991C4.28041 11.5684 4.27927 12.4403 3.71041 12.9086L2.87838 13.5935C2.28627 14.081 2.13482 14.9169 2.5183 15.5811L4.16119 18.4266C4.5447 19.0908 5.34424 19.3776 6.06252 19.1086L7.07166 18.7305C7.76302 18.4715 8.51756 18.9085 8.63869 19.6352L8.81588 20.6982C8.94197 21.4548 9.59017 22.0039 10.3571 22.0039H13.6429C14.4098 22.0039 15.058 21.4548 15.1841 20.6983L15.3612 19.6353C15.4826 18.9073 16.2382 18.472 16.9283 18.7306L17.9375 19.1086C18.6558 19.3777 19.4553 19.0909 19.8388 18.4267L21.4818 15.5811C21.8652 14.9169 21.7137 14.081 21.1217 13.5936ZM18.4857 17.6454L17.4765 17.2673C15.8633 16.663 14.1027 17.6826 13.8201 19.3784L13.6429 20.4414H10.3572L10.18 19.3784C9.89681 17.6793 8.13365 16.6642 6.52353 17.2673L5.51435 17.6454L3.8715 14.7999L4.70349 14.115C6.03353 13.02 6.03076 10.9855 4.70349 9.89285L3.8715 9.20793L5.51439 6.36238L6.52353 6.74047C8.13681 7.34477 9.89736 6.32523 10.18 4.62941L10.3571 3.56641H13.6429L13.82 4.62941C14.1032 6.32871 15.8665 7.34352 17.4765 6.74047L18.4856 6.36238L20.1289 9.20754C20.1289 9.20754 20.1288 9.20766 20.1285 9.20789L19.2965 9.89281C17.9665 10.9877 17.9692 13.0222 19.2965 14.1149L20.1285 14.7998L18.4857 17.6454ZM12 8.14973C9.87482 8.14973 8.14584 9.87871 8.14584 12.0039C8.14584 14.1291 9.87482 15.8581 12 15.8581C14.1252 15.8581 15.8542 14.1291 15.8542 12.0039C15.8542 9.87871 14.1252 8.14973 12 8.14973ZM12 14.2956C10.7364 14.2956 9.70834 13.2675 9.70834 12.0039C9.70834 10.7403 10.7364 9.71223 12 9.71223C13.2636 9.71223 14.2917 10.7403 14.2917 12.0039C14.2917 13.2675 13.2636 14.2956 12 14.2956Z"/>
</g>
<defs>
<clipPath id="clip0_73037_1701">
<rect width="20" height="20" fill="white" transform="translate(2 2.00391)"/>
</clipPath>
</defs>
</svg>
