<svg width="24" height="24" viewBox="0 0 24 24" fill="currentColor" xmlns="http://www.w3.org/2000/svg">
<g clip-path="url(#clip0_73222_4371)">
<path d="M15.7917 6.16667H15.5V5.875C15.5 5.64294 15.4078 5.42038 15.2437 5.25628C15.0796 5.09219 14.8571 5 14.625 5C14.3929 5 14.1704 5.09219 14.0063 5.25628C13.8422 5.42038 13.75 5.64294 13.75 5.875V6.16667H10.25V5.875C10.25 5.64294 10.1578 5.42038 9.99372 5.25628C9.82962 5.09219 9.60706 5 9.375 5C9.14294 5 8.92038 5.09219 8.75628 5.25628C8.59219 5.42038 8.5 5.64294 8.5 5.875V6.16667H8.20833C7.35743 6.16667 6.54138 6.50469 5.9397 7.10637C5.33802 7.70805 5 8.5241 5 9.375L5 15.7917C5 16.6426 5.33802 17.4586 5.9397 18.0603C6.54138 18.662 7.35743 19 8.20833 19H15.7917C16.6426 19 17.4586 18.662 18.0603 18.0603C18.662 17.4586 19 16.6426 19 15.7917V9.375C19 8.5241 18.662 7.70805 18.0603 7.10637C17.4586 6.50469 16.6426 6.16667 15.7917 6.16667ZM15.7917 17.25H8.20833C7.82156 17.25 7.45063 17.0964 7.17714 16.8229C6.90365 16.5494 6.75 16.1784 6.75 15.7917V10.25H17.25V15.7917C17.25 16.1784 17.0964 16.5494 16.8229 16.8229C16.5494 17.0964 16.1784 17.25 15.7917 17.25Z" />
</g>
<defs>
<clipPath id="clip0_73222_4371">
<rect width="14" height="14" fill="white" transform="translate(5 5)"/>
</clipPath>
</defs>
</svg>
