<svg width="24" height="24" viewBox="0 0 24 24" fill="currentColor" xmlns="http://www.w3.org/2000/svg">
<g clip-path="url(#clip0_73037_1689)">
<path d="M8.625 12.75C7.95749 12.75 7.30497 12.5521 6.74995 12.1812C6.19493 11.8104 5.76235 11.2833 5.50691 10.6666C5.25146 10.0499 5.18462 9.37126 5.31485 8.71657C5.44507 8.06189 5.76651 7.46052 6.23851 6.98852C6.71052 6.51651 7.31188 6.19508 7.96657 6.06485C8.62126 5.93463 9.29986 6.00146 9.91656 6.25691C10.5333 6.51235 11.0604 6.94494 11.4312 7.49995C11.8021 8.05497 12 8.70749 12 9.375C11.999 10.2698 11.6431 11.1277 11.0104 11.7604C10.3777 12.3931 9.5198 12.749 8.625 12.75ZM8.625 7.5C8.25416 7.5 7.89165 7.60997 7.58331 7.816C7.27496 8.02202 7.03464 8.31486 6.89273 8.65747C6.75081 9.00008 6.71368 9.37708 6.78603 9.7408C6.85837 10.1045 7.03695 10.4386 7.29917 10.7008C7.5614 10.963 7.89549 11.1416 8.25921 11.214C8.62292 11.2863 8.99992 11.2492 9.34253 11.1073C9.68514 10.9654 9.97798 10.725 10.184 10.4167C10.39 10.1084 10.5 9.74584 10.5 9.375C10.5 8.87772 10.3025 8.40081 9.95083 8.04918C9.59919 7.69755 9.12228 7.5 8.625 7.5ZM14.25 20.25V19.875C14.25 18.3832 13.6574 16.9524 12.6025 15.8975C11.5476 14.8426 10.1168 14.25 8.625 14.25C7.13316 14.25 5.70242 14.8426 4.64752 15.8975C3.59263 16.9524 3 18.3832 3 19.875L3 20.25C3 20.4489 3.07902 20.6397 3.21967 20.7803C3.36032 20.921 3.55109 21 3.75 21C3.94891 21 4.13968 20.921 4.28033 20.7803C4.42098 20.6397 4.5 20.4489 4.5 20.25V19.875C4.5 18.781 4.9346 17.7318 5.70818 16.9582C6.48177 16.1846 7.53098 15.75 8.625 15.75C9.71902 15.75 10.7682 16.1846 11.5418 16.9582C12.3154 17.7318 12.75 18.781 12.75 19.875V20.25C12.75 20.4489 12.829 20.6397 12.9697 20.7803C13.1103 20.921 13.3011 21 13.5 21C13.6989 21 13.8897 20.921 14.0303 20.7803C14.171 20.6397 14.25 20.4489 14.25 20.25ZM21 16.5C21 15.4865 20.7066 14.4947 20.1553 13.6443C19.604 12.7939 18.8183 12.1212 17.8931 11.7075C16.9679 11.2938 15.9427 11.1567 14.9413 11.3128C13.9399 11.4689 13.0051 11.9115 12.2498 12.5873C12.1753 12.6527 12.1146 12.7321 12.0711 12.8212C12.0275 12.9102 12.0021 13.0069 11.9962 13.1058C11.9902 13.2047 12.004 13.3038 12.0366 13.3974C12.0692 13.4909 12.12 13.5771 12.186 13.6509C12.2521 13.7247 12.3322 13.7847 12.4216 13.8274C12.511 13.8701 12.608 13.8947 12.7069 13.8997C12.8059 13.9047 12.9048 13.89 12.9981 13.8566C13.0913 13.8231 13.1771 13.7715 13.2502 13.7048C13.7898 13.2222 14.4576 12.9062 15.1728 12.7947C15.8881 12.6833 16.6203 12.7813 17.2811 13.0769C17.9419 13.3724 18.503 13.8529 18.8967 14.4603C19.2905 15.0677 19.5 15.7761 19.5 16.5C19.5 16.6989 19.579 16.8897 19.7197 17.0303C19.8603 17.171 20.0511 17.25 20.25 17.25C20.4489 17.25 20.6397 17.171 20.7803 17.0303C20.921 16.8897 21 16.6989 21 16.5ZM16.125 9.75C15.4575 9.75 14.805 9.55206 14.25 9.18121C13.6949 8.81036 13.2624 8.28326 13.0069 7.66656C12.7515 7.04986 12.6846 6.37126 12.8148 5.71657C12.9451 5.06189 13.2665 4.46052 13.7385 3.98852C14.2105 3.51651 14.8119 3.19508 15.4666 3.06485C16.1213 2.93463 16.7999 3.00146 17.4166 3.25691C18.0333 3.51235 18.5604 3.94494 18.9312 4.49995C19.3021 5.05497 19.5 5.70749 19.5 6.375C19.499 7.2698 19.1431 8.12767 18.5104 8.76039C17.8777 9.39311 17.0198 9.74901 16.125 9.75ZM16.125 4.5C15.7542 4.5 15.3916 4.60997 15.0833 4.816C14.775 5.02202 14.5346 5.31486 14.3927 5.65747C14.2508 6.00008 14.2137 6.37708 14.286 6.7408C14.3584 7.10451 14.537 7.4386 14.7992 7.70083C15.0614 7.96305 15.3955 8.14163 15.7592 8.21397C16.1229 8.28632 16.4999 8.24919 16.8425 8.10728C17.1851 7.96536 17.478 7.72504 17.684 7.4167C17.89 7.10835 18 6.74584 18 6.375C18 5.87772 17.8025 5.40081 17.4508 5.04918C17.0992 4.69755 16.6223 4.5 16.125 4.5Z"/>
</g>
<defs>
<clipPath id="clip0_73037_1689">
<rect width="18" height="18" transform="translate(3 3)"/>
</clipPath>
</defs>
</svg>
