<svg width="24" height="24" viewBox="0 0 24 24" fill="currentColor" xmlns="http://www.w3.org/2000/svg">
<path d="M18.5723 9.96718C18.0459 9.09342 17.3819 8.31293 16.6066 7.65669L18.2394 6.00169C18.3456 5.89022 18.4044 5.74091 18.403 5.58593C18.4017 5.43096 18.3404 5.28271 18.2323 5.17312C18.1241 5.06353 17.9779 5.00137 17.825 5.00002C17.6721 4.99868 17.5248 5.05825 17.4148 5.16592L15.6392 6.96809C14.5385 6.3054 13.2802 5.96 12 5.96918C8.38992 5.96918 6.33268 8.47414 5.42768 9.96718C5.1481 10.4256 5 10.9538 5 11.4927C5 12.0317 5.1481 12.5599 5.42768 13.0183C5.9541 13.8921 6.61811 14.6725 7.39337 15.3288L5.76064 16.9838C5.70495 17.0383 5.66053 17.1035 5.62997 17.1756C5.59941 17.2478 5.58332 17.3253 5.58265 17.4038C5.58198 17.4823 5.59673 17.5601 5.62605 17.6327C5.65537 17.7054 5.69867 17.7714 5.75342 17.8269C5.80817 17.8824 5.87327 17.9263 5.94494 17.956C6.0166 17.9857 6.09338 18.0007 6.17081 18C6.24824 17.9993 6.32475 17.983 6.3959 17.952C6.46704 17.921 6.53138 17.876 6.58517 17.8196L8.36485 16.0156C9.46418 16.6782 10.721 17.0242 12 17.0163C15.6101 17.0163 17.6673 14.5113 18.5723 13.0183C18.8519 12.5599 19 12.0317 19 11.4927C19 10.9538 18.8519 10.4256 18.5723 9.96718ZM6.42132 12.3994C6.25521 12.127 6.16722 11.813 6.16722 11.4927C6.16722 11.1725 6.25521 10.8585 6.42132 10.586C7.1992 9.30578 8.95729 7.15133 12 7.15133C12.9681 7.14583 13.9227 7.38234 14.7791 7.83992L13.6053 9.02975C13.0455 8.653 12.3743 8.48419 11.7057 8.55195C11.037 8.61972 10.4121 8.91989 9.93693 9.40153C9.46177 9.88317 9.16564 10.5166 9.09878 11.1944C9.03193 11.8721 9.19847 12.5525 9.57015 13.12L8.22315 14.4853C7.50889 13.9 6.89938 13.1944 6.42132 12.3994ZM13.7494 11.4927C13.7494 11.963 13.565 12.414 13.237 12.7466C12.9089 13.0791 12.464 13.2659 12 13.2659C11.7402 13.2649 11.4841 13.2043 11.2507 13.0886L13.5744 10.7332C13.6885 10.9698 13.7483 11.2294 13.7494 11.4927ZM10.2506 11.4927C10.2506 11.0225 10.435 10.5714 10.763 10.2389C11.0911 9.90635 11.536 9.71953 12 9.71953C12.2598 9.72055 12.5159 9.78117 12.7493 9.89685L10.4256 12.2523C10.3115 12.0157 10.2517 11.7561 10.2506 11.4927ZM17.5787 12.3994C16.8008 13.6797 15.0427 15.8341 12 15.8341C11.0319 15.8396 10.0773 15.6031 9.22086 15.1456L10.3947 13.9557C10.9545 14.3325 11.6257 14.5013 12.2943 14.4335C12.963 14.3658 13.5879 14.0656 14.0631 13.5839C14.5382 13.1023 14.8344 12.4689 14.9012 11.7911C14.9681 11.1133 14.8015 10.433 14.4298 9.86552L15.7769 8.50015C16.4911 9.08547 17.1006 9.79107 17.5787 10.586C17.7448 10.8585 17.8328 11.1725 17.8328 11.4927C17.8328 11.813 17.7448 12.127 17.5787 12.3994Z"/>
</svg>
