<svg width="18" height="18" viewBox="0 0 18 18" fill="currentColor" xmlns="http://www.w3.org/2000/svg">
<path d="M17.9137 12.1485L15.8678 5.12287C15.4309 3.62 14.479 2.29954 13.1635 1.37165C11.848 0.443765 10.2446 -0.0382337 8.60835 0.00237063C6.97214 0.042975 5.3972 0.603849 4.13419 1.59573C2.87118 2.5876 1.99268 3.95349 1.63851 5.47598L0.0560761 12.2609C-0.0204939 12.5896 -0.0186262 12.9305 0.0615414 13.2584C0.141709 13.5864 0.298131 13.893 0.519266 14.1556C0.740401 14.4182 1.02061 14.6302 1.33921 14.7759C1.65782 14.9216 2.00669 14.9973 2.36009 14.9974H5.19839C5.379 15.8448 5.86153 16.6066 6.56423 17.1538C7.26693 17.7011 8.14659 18 9.05415 18C9.96171 18 10.8414 17.7011 11.5441 17.1538C12.2468 16.6066 12.7293 15.8448 12.9099 14.9974H15.6404C16.004 14.9972 16.3627 14.917 16.6885 14.7631C17.0142 14.6091 17.2982 14.3855 17.5183 14.1097C17.7385 13.834 17.8887 13.5135 17.9575 13.1733C18.0262 12.8331 18.0115 12.4824 17.9145 12.1485H17.9137ZM9.05415 16.4968C8.56765 16.4949 8.09365 16.3498 7.697 16.0814C7.30036 15.813 7.00043 15.4344 6.83827 14.9974H11.27C11.1079 15.4344 10.8079 15.813 10.4113 16.0814C10.0146 16.3498 9.54065 16.4949 9.05415 16.4968ZM16.266 13.2018C16.1926 13.2945 16.0974 13.3696 15.9881 13.421C15.8788 13.4725 15.7584 13.4988 15.6365 13.4979H2.36009C2.24226 13.4979 2.12594 13.4727 2.01972 13.4241C1.91349 13.3755 1.82007 13.3049 1.74636 13.2173C1.67264 13.1297 1.62051 13.0275 1.5938 12.9181C1.5671 12.8088 1.56651 12.6951 1.59208 12.5855L3.17452 5.80061C3.45335 4.60572 4.14342 3.53392 5.13502 2.7556C6.12661 1.97728 7.36283 1.5371 8.64715 1.50505C9.93147 1.47299 11.1902 1.8509 12.2232 2.57868C13.2562 3.30647 14.0042 4.34237 14.3483 5.52172L16.3942 12.5473C16.4277 12.6584 16.4335 12.7754 16.4112 12.889C16.3889 13.0026 16.3392 13.1097 16.266 13.2018Z" />
</svg>
