<svg width="24" height="24" viewBox="0 0 24 24" fill="currentColor" xmlns="http://www.w3.org/2000/svg">
<path d="M12 5C10.6155 5 9.26215 5.41054 8.11101 6.17971C6.95987 6.94888 6.06266 8.04213 5.53285 9.32122C5.00303 10.6003 4.86441 12.0078 5.13451 13.3656C5.4046 14.7235 6.07129 15.9708 7.05026 16.9497C8.02922 17.9287 9.2765 18.5954 10.6344 18.8655C11.9922 19.1356 13.3997 18.997 14.6788 18.4672C15.9579 17.9373 17.0511 17.0401 17.8203 15.889C18.5895 14.7378 19 13.3845 19 12C18.998 10.1441 18.2599 8.36479 16.9475 7.05247C15.6352 5.74015 13.8559 5.00201 12 5V5ZM12 17.8333C10.8463 17.8333 9.71846 17.4912 8.75918 16.8502C7.79989 16.2093 7.05222 15.2982 6.61071 14.2323C6.16919 13.1664 6.05368 11.9935 6.27876 10.862C6.50384 9.73042 7.05941 8.69102 7.87521 7.87521C8.69102 7.0594 9.73042 6.50383 10.862 6.27875C11.9935 6.05367 13.1664 6.16919 14.2323 6.6107C15.2982 7.05221 16.2093 7.79989 16.8502 8.75917C17.4912 9.71846 17.8333 10.8463 17.8333 12C17.8316 13.5466 17.2165 15.0293 16.1229 16.1229C15.0293 17.2165 13.5466 17.8316 12 17.8333ZM13.1667 12C13.1676 12.205 13.1145 12.4067 13.0127 12.5846C12.9109 12.7626 12.764 12.9105 12.5868 13.0136C12.4096 13.1168 12.2083 13.1714 12.0033 13.1719C11.7983 13.1725 11.5968 13.1191 11.419 13.017C11.2412 12.9148 11.0935 12.7677 10.9906 12.5903C10.8878 12.413 10.8336 12.2116 10.8333 12.0066C10.8331 11.8016 10.8869 11.6001 10.9893 11.4225C11.0917 11.2449 11.2391 11.0974 11.4167 10.9949V9.08333C11.4167 8.92862 11.4781 8.78025 11.5875 8.67085C11.6969 8.56146 11.8453 8.5 12 8.5C12.1547 8.5 12.3031 8.56146 12.4125 8.67085C12.5219 8.78025 12.5833 8.92862 12.5833 9.08333V10.9949C12.7602 11.0966 12.9071 11.243 13.0095 11.4194C13.1119 11.5958 13.1661 11.796 13.1667 12Z" />
</svg>
