<svg width="24" height="24" viewBox="0 0 24 24" fill="currentColor" xmlns="http://www.w3.org/2000/svg">
<path d="M18.5723 9.98095C17.6679 8.49428 15.6107 6 12 6C8.38934 6 6.3321 8.49428 5.42768 9.98095C5.1481 10.4374 5 10.9634 5 11.5C5 12.0366 5.1481 12.5626 5.42768 13.019C6.3321 14.5057 8.38934 17 12 17C15.6107 17 17.6679 14.5057 18.5723 13.019C18.8519 12.5626 19 12.0366 19 11.5C19 10.9634 18.8519 10.4374 18.5723 9.98095ZM17.5781 12.4028C16.8014 13.6776 15.0433 15.8229 12 15.8229C8.95671 15.8229 7.19861 13.6776 6.4219 12.4028C6.25579 12.1315 6.16781 11.8189 6.16781 11.5C6.16781 11.1811 6.25579 10.8685 6.4219 10.5972C7.19861 9.32237 8.95671 7.1771 12 7.1771C15.0433 7.1771 16.8014 9.32001 17.5781 10.5972C17.7442 10.8685 17.8322 11.1811 17.8322 11.5C17.8322 11.8189 17.7442 12.1315 17.5781 12.4028Z" />
<path d="M11.9996 8.55731C11.4229 8.55731 10.8592 8.7299 10.3798 9.05325C9.90029 9.37661 9.5266 9.8362 9.30592 10.3739C9.08525 10.9116 9.02751 11.5033 9.14001 12.0742C9.25251 12.645 9.53019 13.1694 9.93794 13.5809C10.3457 13.9925 10.8652 14.2727 11.4308 14.3863C11.9963 14.4998 12.5826 14.4415 13.1153 14.2188C13.6481 13.9961 14.1034 13.6189 14.4238 13.135C14.7442 12.651 14.9152 12.0821 14.9152 11.5001C14.9142 10.7199 14.6068 9.97193 14.0602 9.42026C13.5136 8.86859 12.7725 8.55825 11.9996 8.55731ZM11.9996 13.2657C11.6536 13.2657 11.3154 13.1622 11.0277 12.9681C10.74 12.7741 10.5158 12.4984 10.3834 12.1757C10.251 11.8531 10.2163 11.4981 10.2838 11.1556C10.3513 10.8131 10.5179 10.4985 10.7626 10.2516C11.0072 10.0046 11.3189 9.83647 11.6583 9.76834C11.9976 9.70021 12.3494 9.73518 12.669 9.86881C12.9887 10.0025 13.2619 10.2288 13.4541 10.5191C13.6463 10.8095 13.7489 11.1508 13.7489 11.5001C13.7489 11.9683 13.5646 12.4174 13.2366 12.7486C12.9085 13.0797 12.4635 13.2657 11.9996 13.2657Z" />
</svg>
