<svg width="24" height="24" viewBox="0 0 24 24" fill="currentColor" xmlns="http://www.w3.org/2000/svg">
<g clip-path="url(#clip0_73222_4360)">
<path d="M18.4167 17.8333H6.75C6.59529 17.8333 6.44692 17.7719 6.33752 17.6625C6.22812 17.5531 6.16667 17.4047 6.16667 17.25V5.58333C6.16667 5.42862 6.10521 5.28025 5.99581 5.17085C5.88642 5.06146 5.73804 5 5.58333 5C5.42862 5 5.28025 5.06146 5.17085 5.17085C5.06146 5.28025 5 5.42862 5 5.58333V17.25C5 17.7141 5.18437 18.1592 5.51256 18.4874C5.84075 18.8156 6.28587 19 6.75 19H18.4167C18.5714 19 18.7197 18.9385 18.8291 18.8291C18.9385 18.7197 19 18.5714 19 18.4167C19 18.262 18.9385 18.1136 18.8291 18.0042C18.7197 17.8948 18.5714 17.8333 18.4167 17.8333Z" />
<path d="M13.7503 16.6666C13.905 16.6666 14.0534 16.6052 14.1628 16.4958C14.2722 16.3864 14.3337 16.238 14.3337 16.0833V12C14.3337 11.8452 14.2722 11.6969 14.1628 11.5875C14.0534 11.4781 13.905 11.4166 13.7503 11.4166C13.5956 11.4166 13.4472 11.4781 13.3378 11.5875C13.2285 11.6969 13.167 11.8452 13.167 12V16.0833C13.167 16.238 13.2285 16.3864 13.3378 16.4958C13.4472 16.6052 13.5956 16.6666 13.7503 16.6666Z" />
<path d="M9.08333 16.6666C9.23804 16.6666 9.38642 16.6052 9.49581 16.4958C9.60521 16.3864 9.66667 16.238 9.66667 16.0833V12C9.66667 11.8452 9.60521 11.6969 9.49581 11.5875C9.38642 11.4781 9.23804 11.4166 9.08333 11.4166C8.92862 11.4166 8.78025 11.4781 8.67085 11.5875C8.56146 11.6969 8.5 11.8452 8.5 12V16.0833C8.5 16.238 8.56146 16.3864 8.67085 16.4958C8.78025 16.6052 8.92862 16.6666 9.08333 16.6666Z" />
<path d="M16.0833 16.6667C16.238 16.6667 16.3864 16.6052 16.4958 16.4958C16.6052 16.3864 16.6667 16.238 16.6667 16.0833V9.08333C16.6667 8.92862 16.6052 8.78025 16.4958 8.67085C16.3864 8.56146 16.238 8.5 16.0833 8.5C15.9286 8.5 15.7803 8.56146 15.6709 8.67085C15.5615 8.78025 15.5 8.92862 15.5 9.08333V16.0833C15.5 16.238 15.5615 16.3864 15.6709 16.4958C15.7803 16.6052 15.9286 16.6667 16.0833 16.6667Z" />
<path d="M11.4163 16.6667C11.5711 16.6667 11.7194 16.6052 11.8288 16.4958C11.9382 16.3864 11.9997 16.238 11.9997 16.0833V9.08333C11.9997 8.92862 11.9382 8.78025 11.8288 8.67085C11.7194 8.56146 11.5711 8.5 11.4163 8.5C11.2616 8.5 11.1133 8.56146 11.0039 8.67085C10.8945 8.78025 10.833 8.92862 10.833 9.08333V16.0833C10.833 16.238 10.8945 16.3864 11.0039 16.4958C11.1133 16.6052 11.2616 16.6667 11.4163 16.6667Z" />
</g>
<defs>
<clipPath id="clip0_73222_4360">
<rect width="14" height="14" fill="white" transform="translate(5 5)"/>
</clipPath>
</defs>
</svg>
