<svg width="24" height="24" viewBox="0 0 24 24" fill="currentColor" xmlns="http://www.w3.org/2000/svg">
<path d="M9.33333 8.66667C9.59704 8.66667 9.85483 8.58847 10.0741 8.44196C10.2934 8.29545 10.4643 8.08721 10.5652 7.84358C10.6661 7.59994 10.6925 7.33185 10.641 7.07321C10.5896 6.81457 10.4626 6.57699 10.2761 6.39052C10.0897 6.20405 9.8521 6.07707 9.59345 6.02562C9.33481 5.97417 9.06672 6.00058 8.82309 6.10149C8.57945 6.20241 8.37122 6.37331 8.22471 6.59257C8.0782 6.81184 8 7.06963 8 7.33333C8 7.68696 8.14048 8.02609 8.39053 8.27614C8.64057 8.52619 8.97971 8.66667 9.33333 8.66667ZM9.33333 15.3333C9.06963 15.3333 8.81184 15.4115 8.59257 15.558C8.37331 15.7045 8.20241 15.9128 8.10149 16.1564C8.00058 16.4001 7.97417 16.6681 8.02562 16.9268C8.07707 17.1854 8.20406 17.423 8.39053 17.6095C8.577 17.7959 8.81457 17.9229 9.07321 17.9744C9.33185 18.0258 9.59994 17.9994 9.84358 17.8985C10.0872 17.7976 10.2955 17.6267 10.442 17.4074C10.5885 17.1882 10.6667 16.9304 10.6667 16.6667C10.6667 16.313 10.5262 15.9739 10.2761 15.7239C10.0261 15.4738 9.68696 15.3333 9.33333 15.3333ZM9.33333 10.6667C9.06963 10.6667 8.81184 10.7449 8.59257 10.8914C8.37331 11.0379 8.20241 11.2461 8.10149 11.4898C8.00058 11.7334 7.97417 12.0015 8.02562 12.2601C8.07707 12.5188 8.20406 12.7563 8.39053 12.9428C8.577 13.1293 8.81457 13.2563 9.07321 13.3077C9.33185 13.3592 9.59994 13.3328 9.84358 13.2318C10.0872 13.1309 10.2955 12.96 10.442 12.7408C10.5885 12.5215 10.6667 12.2637 10.6667 12C10.6667 11.6464 10.5262 11.3072 10.2761 11.0572C10.0261 10.8071 9.68696 10.6667 9.33333 10.6667Z" />
<path d="M14.6673 8.66667C14.931 8.66667 15.1888 8.58847 15.4081 8.44196C15.6273 8.29545 15.7982 8.08721 15.8992 7.84358C16.0001 7.59994 16.0265 7.33185 15.975 7.07321C15.9236 6.81457 15.7966 6.57699 15.6101 6.39052C15.4237 6.20405 15.1861 6.07707 14.9274 6.02562C14.6688 5.97417 14.4007 6.00058 14.1571 6.10149C13.9134 6.20241 13.7052 6.37331 13.5587 6.59257C13.4122 6.81184 13.334 7.06963 13.334 7.33333C13.334 7.68696 13.4745 8.02609 13.7245 8.27614C13.9746 8.52619 14.3137 8.66667 14.6673 8.66667ZM14.6673 15.3333C14.4036 15.3333 14.1458 15.4115 13.9266 15.558C13.7073 15.7045 13.5364 15.9128 13.4355 16.1564C13.3346 16.4001 13.3082 16.6681 13.3596 16.9268C13.4111 17.1854 13.538 17.423 13.7245 17.6095C13.911 17.7959 14.1486 17.9229 14.4072 17.9744C14.6658 18.0258 14.9339 17.9994 15.1776 17.8985C15.4212 17.7976 15.6294 17.6267 15.7759 17.4074C15.9225 17.1882 16.0007 16.9304 16.0007 16.6667C16.0007 16.313 15.8602 15.9739 15.6101 15.7239C15.3601 15.4738 15.0209 15.3333 14.6673 15.3333ZM14.6673 10.6667C14.4036 10.6667 14.1458 10.7449 13.9266 10.8914C13.7073 11.0379 13.5364 11.2461 13.4355 11.4898C13.3346 11.7334 13.3082 12.0015 13.3596 12.2601C13.4111 12.5188 13.538 12.7563 13.7245 12.9428C13.911 13.1293 14.1486 13.2563 14.4072 13.3077C14.6658 13.3592 14.9339 13.3328 15.1776 13.2318C15.4212 13.1309 15.6294 12.96 15.7759 12.7408C15.9225 12.5215 16.0007 12.2637 16.0007 12C16.0007 11.6464 15.8602 11.3072 15.6101 11.0572C15.3601 10.8071 15.0209 10.6667 14.6673 10.6667Z" />
</svg>
